<svg width="77" height="69" viewBox="0 0 77 69" fill="none" xmlns="http://www.w3.org/2000/svg">
<path d="M61.272 16.6573C61.272 17.4418 61.272 18.2145 61.272 18.9989C61.272 29.0091 61.272 29.0559 71.0246 29.8989C73.1438 30.0862 74.8062 30.695 75.8248 32.6034C76.9956 34.7342 75.8248 36.3968 74.5136 37.8837C66.1776 47.4061 57.8142 56.9012 49.4236 66.3689C47.9367 68.0432 46.239 69.4012 43.8389 68.2539C41.6378 67.2002 41.0525 65.2332 41.0642 62.9034C41.0642 56.4757 40.9003 50.0248 41.1461 43.6323C41.2749 40.2604 40.1041 39.394 36.8376 39.3471C33.5711 39.3003 28.8763 41.2672 26.9562 36.7129C25.0361 32.1585 29.4148 30.1096 31.6393 27.4637C38.4065 19.4321 45.4664 11.6347 52.456 3.77867C53.9897 2.04591 55.5234 -0.0498191 58.3099 0.980473C61.272 2.06931 61.3071 4.69187 61.2602 7.31443C61.2368 10.4287 61.272 13.543 61.272 16.6573Z" fill="#2B61B5"/>
<path d="M15.4944 9.28065C11.6191 9.28065 7.74378 9.28065 3.88019 9.28065C2.19425 9.28065 0.613733 8.69527 0.484947 6.84542C0.309329 4.58581 2.04209 3.93016 3.99731 3.91846C11.7362 3.91846 19.4751 3.91846 27.214 3.91846C28.9 3.91846 30.3634 4.67948 30.34 6.59957C30.3166 8.51966 28.8297 9.187 27.1438 9.22212C23.2334 9.32749 19.358 9.28065 15.4944 9.28065Z" fill="#2B61B5"/>
<path d="M13.4919 65.4677C10.202 65.4677 6.91206 65.4677 3.62214 65.4677C1.94792 65.4677 0.472714 64.7301 0.461006 62.8217C0.449298 60.9133 1.9362 60.1757 3.61043 60.164C10.3776 60.1172 17.1448 60.1172 23.9119 60.164C25.6564 60.164 26.9559 61.1709 26.7803 63.0441C26.7121 63.7313 26.3746 64.3636 25.8414 64.8024C25.3082 65.2413 24.6228 65.451 23.9353 65.3857C20.4229 65.3857 16.9691 65.3857 13.4919 65.3857V65.4677Z" fill="#2B61B5"/>
<path d="M8.79687 37.6377C5.75282 36.6776 0.835511 39.1129 0.741848 34.9332C0.636477 30.1095 5.71773 32.1701 8.53933 32.1115C11.3609 32.053 16.0324 30.2851 15.9972 34.7341C15.9621 39.1831 11.0331 36.3966 8.79687 37.6377Z" fill="#2B61B5"/>
</svg>
