<svg width="89" height="27" viewBox="0 0 89 27" fill="none" xmlns="http://www.w3.org/2000/svg">
<path d="M25.8694 13.6906C25.8862 15.3376 25.5714 16.9711 24.9437 18.4938C24.3161 20.0164 23.3885 21.3969 22.2161 22.553C21.0438 23.7092 19.6508 24.6172 18.1202 25.223C16.5897 25.8287 14.9529 26.1198 13.3075 26.0788C11.5967 26.1211 9.8959 25.8053 8.3141 25.1517C6.73231 24.4981 5.30436 23.5211 4.12177 22.2832C2.93919 21.0453 2.02801 19.5739 1.44663 17.9632C0.865247 16.3525 0.626504 14.638 0.745633 12.9296C0.783994 11.284 1.15213 9.66279 1.82822 8.16216C2.50431 6.66152 3.47464 5.31196 4.68159 4.19355C5.88854 3.07515 7.30758 2.21065 8.85461 1.65126C10.4016 1.09188 12.0451 0.848988 13.6877 0.937038C15.3328 0.945951 16.9592 1.28614 18.4701 1.93736C19.9811 2.58859 21.3455 3.5375 22.4822 4.72757C23.6189 5.91765 24.5046 7.32455 25.0865 8.8644C25.6684 10.4043 25.9347 12.0456 25.8694 13.6906Z" fill="#2B61B5"/>
<path d="M88.0278 13.9053C88.0146 15.545 87.6731 17.1653 87.0237 18.6708C86.3742 20.1763 85.4298 21.5364 84.2463 22.6707C83.0628 23.8051 81.6641 24.6908 80.1328 25.2755C78.6015 25.8602 76.9687 26.1322 75.3306 26.0752C73.621 26.0954 71.9258 25.7587 70.3535 25.0869C68.7811 24.415 67.366 23.4226 66.1985 22.173C65.0309 20.9234 64.1366 19.4441 63.5725 17.8293C63.0084 16.2146 62.787 14.4999 62.9224 12.7948C62.9801 11.15 63.367 9.53351 64.0601 8.04092C64.7533 6.54833 65.7386 5.20996 66.9579 4.10506C68.1772 3.00016 69.6057 2.15116 71.1587 1.60826C72.7118 1.06537 74.3579 0.839629 75.9997 0.944394C77.6499 0.974545 79.277 1.33739 80.7837 2.01123C82.2904 2.68506 83.6458 3.65603 84.7688 4.86605C85.8917 6.07607 86.7591 7.50028 87.3191 9.05344C87.8791 10.6066 88.1201 12.2568 88.0278 13.9053Z" fill="#2B61B5"/>
<path d="M56.9555 13.344C57.0168 14.985 56.7471 16.6215 56.1624 18.1566C55.5777 19.6916 54.6899 21.094 53.5517 22.2804C52.4134 23.4668 51.048 24.4132 49.5362 25.0633C48.0244 25.7135 46.3971 26.0542 44.7508 26.0653C43.0357 26.1564 41.3204 25.888 39.7156 25.2776C38.1108 24.6672 36.652 23.7282 35.4332 22.5211C34.2144 21.314 33.2626 19.8656 32.6393 18.2692C32.0159 16.6729 31.7347 14.964 31.8138 13.2527C31.7922 11.6048 32.1062 9.96958 32.7369 8.44631C33.3676 6.92305 34.3017 5.54342 35.4828 4.39095C36.6639 3.23848 38.0673 2.33717 39.608 1.74174C41.1486 1.1463 42.7944 0.869106 44.4457 0.92693C46.0946 0.885457 47.735 1.17786 49.2675 1.78641C50.8 2.39496 52.193 3.30702 53.3622 4.46757C54.5314 5.62813 55.4526 7.0131 56.0702 8.53873C56.6878 10.0643 56.989 11.699 56.9555 13.344Z" fill="#2B61B5"/>
</svg>
