<svg width="79" height="82" viewBox="0 0 79 82" fill="none" xmlns="http://www.w3.org/2000/svg">
<path d="M38.7273 81.2051C33.3228 81.2051 27.9183 81.3402 22.5138 81.2051C18.3054 81.1807 14.2743 79.5074 11.2859 76.5442C8.29745 73.5811 6.59009 69.5644 6.53004 65.3564C6.31386 57.709 6.63804 50.0482 6.43537 42.3873C6.24621 35.6317 10.813 36.4018 15.1636 36.2667C19.7304 36.1315 23.3515 36.7125 23.0272 42.617C22.8313 45.9874 22.8313 49.3664 23.0272 52.7369C23.4325 59.4925 28.81 62.9649 34.7819 59.8438C36.0526 59.0241 37.5326 58.5881 39.0448 58.5881C40.5569 58.5881 42.0369 59.0241 43.3076 59.8438C49.2255 62.9514 54.5759 59.4384 55.0488 52.6558C55.3055 49.9596 55.3055 47.2452 55.0488 44.5491C54.2381 37.7934 57.3727 36.1316 63.6825 36.1451C69.9922 36.1586 72.127 38.3339 71.7892 44.468C71.3974 51.2236 71.7893 57.9792 71.6677 64.7348C71.465 74.4089 64.7229 81.0564 54.9678 81.2591C49.5363 81.2861 44.1318 81.2051 38.7273 81.2051Z" fill="#2B61B5"/>
<path d="M39.0517 32.5639C29.175 32.5639 19.2982 32.6449 9.42149 32.5639C2.5848 32.4828 0.125885 29.6454 0.0988627 22.3223C0.0718402 14.9992 2.42276 12.3375 9.35403 12.0268C12.0563 11.9052 13.583 12.0268 14.7585 8.32469C17.6905 -0.673792 24.0272 -1.6736 30.6342 4.79828C40.3893 14.3507 37.5654 14.3913 47.2665 4.87934C53.9005 -1.61956 60.1968 -0.687339 63.2233 8.20306C64.4123 11.7295 65.7228 11.9322 68.5467 12.0403C75.6941 12.3375 78.2343 15.3911 78.0046 22.9168C77.7478 29.9967 75.3024 32.5098 68.0064 32.5774C58.3864 32.5639 48.7393 32.5639 39.0517 32.5639Z" fill="#2B61B5"/>
<path d="M51.3614 46.0763C51.3614 48.3732 51.4425 50.1296 51.3614 51.9536C51.0912 56.9393 48.2943 58.5877 44.2139 56.1286C40.4443 53.8588 37.5529 53.7507 33.7698 56.1286C29.7164 58.6417 26.5143 57.169 26.7169 52.0753C26.9196 46.9815 24.0147 40.2799 28.5409 37.5101C34.1751 34.0783 41.755 35.6186 48.2404 36.74C53.2801 37.6588 50.7264 43.1173 51.3614 46.0763Z" fill="#2B61B5"/>
</svg>
