<svg width="89" height="89" viewBox="0 0 89 89" fill="none" xmlns="http://www.w3.org/2000/svg">
<path fill-rule="evenodd" clip-rule="evenodd" d="M56.0379 60.236C55.0162 68.7179 53.1802 76.0178 50.7941 81.268C49.6749 83.7264 48.4582 85.7038 47.119 87.0431C46.2356 87.9265 45.3553 88.5301 44.3744 88.5301C43.3936 88.5301 42.5133 87.9265 41.6299 87.0431C40.2906 85.7038 39.074 83.7264 37.9548 81.268C35.5687 76.0178 33.7327 68.7179 32.711 60.236H56.0379ZM34.0125 1.73313C14.7127 6.39537 0.361328 23.7931 0.361328 44.517C0.361328 65.2409 14.7127 82.6386 34.0125 87.3009C30.5134 81.4031 27.7438 71.7831 26.4014 60.236H16.0803C14.3449 60.236 12.9365 58.8276 12.9365 57.0922C12.9365 55.3568 14.3449 53.9484 16.0803 53.9484H25.8261C25.6186 50.8989 25.5117 47.7425 25.5117 44.517C25.5117 41.2915 25.6186 38.1351 25.8261 35.0856H16.0803C14.3449 35.0856 12.9365 33.6772 12.9365 31.9418C12.9365 30.2065 14.3449 28.798 16.0803 28.798H26.4014C27.7438 17.2509 30.5134 7.63089 34.0125 1.73313ZM54.7364 1.73313C58.2354 7.63089 61.0051 17.2509 62.3475 28.798H72.6686C74.4039 28.798 75.8124 30.2065 75.8124 31.9418C75.8124 33.6772 74.4039 35.0856 72.6686 35.0856H62.9228C63.1303 38.1351 63.2372 41.2915 63.2372 44.517C63.2372 47.7425 63.1303 50.8989 62.9228 53.9484H72.6686C74.4039 53.9484 75.8124 55.3568 75.8124 57.0922C75.8124 58.8276 74.4039 60.236 72.6686 60.236H62.3475C61.0051 71.7831 58.2354 81.4031 54.7364 87.3009C74.0361 82.6386 88.3875 65.2409 88.3875 44.517C88.3875 23.7931 74.0361 6.39537 54.7364 1.73313ZM56.6289 35.0856C56.8396 38.1288 56.9496 41.2852 56.9496 44.517C56.9496 47.7488 56.8396 50.9052 56.6289 53.9484H32.1199C31.9093 50.9052 31.7993 47.7488 31.7993 44.517C31.7993 41.2852 31.9093 38.1288 32.1199 35.0856H56.6289ZM32.711 28.798C33.7327 20.3161 35.5687 13.0162 37.9548 7.76607C39.074 5.30762 40.2906 3.33018 41.6299 1.99092C42.5133 1.10751 43.3936 0.503906 44.3744 0.503906C45.3553 0.503906 46.2356 1.10751 47.119 1.99092C48.4582 3.33018 49.6749 5.30762 50.7941 7.76607C53.1802 13.0162 55.0162 20.3161 56.0379 28.798H32.711Z" fill="#2B61B5"/>
</svg>
