<svg width="34" height="37" viewBox="0 0 34 37" fill="none" xmlns="http://www.w3.org/2000/svg">
<path fill-rule="evenodd" clip-rule="evenodd" d="M27.0242 25.1594H33.7089V22.9311H27.0242V25.1594ZM31.4807 11.7899H0.285156V34.0724C0.285156 35.3024 1.28341 36.3007 2.51341 36.3007H31.4807C32.7107 36.3007 33.7089 35.3024 33.7089 34.0724V27.3876H25.9101C25.2951 27.3876 24.7959 26.8896 24.7959 26.2735V21.817C24.7959 21.202 25.2951 20.7029 25.9101 20.7029H33.7089V14.0181C33.7089 12.7881 32.7107 11.7899 31.4807 11.7899ZM31.4807 1.76274C31.4807 1.14663 31.2178 0.80569 30.6451 0.579522C30.2039 0.404604 29.775 0.509345 29.2524 0.648611L0.285156 9.56162H31.4807V1.76274Z" fill="#0B63BC"/>
</svg>
