<svg width="30" height="33" viewBox="0 0 30 33" fill="none" xmlns="http://www.w3.org/2000/svg">
<path d="M6.41177 0.126465H3.99325C2.21967 0.126465 0.768555 1.57758 0.768555 3.35116V22.663C0.768555 24.4366 2.21967 25.8877 3.99325 25.8877H6.41177V0.126465Z" fill="#0B63BC"/>
<path d="M28.3619 14.2297L20.1164 5.98492V3.35116C20.1164 1.57758 18.6653 0.126465 16.8917 0.126465H11.2485V25.8877H16.8917C18.6653 25.8877 20.1164 24.4366 20.1164 22.663V19.6705L21.8255 21.3796L24.1061 19.0997L20.3469 15.3406L15.2672 10.2609C14.9625 9.95613 14.7956 9.54821 14.7964 9.11288C14.7972 8.68238 14.9633 8.2801 15.2672 7.97778C15.8751 7.36912 16.9433 7.37074 17.5503 7.97778L20.9225 11.3508L26.095 16.5232L26.0369 16.5055L26.1248 16.5635C26.2304 16.7223 26.5658 17.3278 26.5658 18.6322V29.1124H13.667C12.1232 29.1124 10.7607 27.7959 10.4963 26.0498L10.4778 25.924H7.2168L7.3087 26.5319C7.80933 29.8412 10.5431 32.3371 13.6678 32.3371H29.7913V18.6322C29.7904 15.8331 28.707 14.5626 28.3619 14.2297Z" fill="#0B63BC"/>
</svg>
