<svg width="86" height="74" viewBox="0 0 86 74" fill="none" xmlns="http://www.w3.org/2000/svg">
<path d="M43.1502 73.3875C36.3647 73.3875 29.5791 73.5498 22.8076 73.3875C17.0169 73.2726 11.4982 70.999 7.41319 67.0454C3.32815 63.0917 0.995237 57.7664 0.905512 52.1901C0.694781 44.3171 0.722878 36.4171 0.905512 28.5441C0.955993 22.8492 3.31556 17.3987 7.48076 13.3552C11.646 9.31171 17.2871 6.99539 23.201 6.90032C26.9379 6.76505 30.689 6.90032 34.44 6.90032C37.32 6.90032 39.2447 6.99499 40.3124 3.1532C41.5065 -1.18909 45.6649 0.867073 47.2384 3.1532C50.0482 7.08968 53.6165 7.30612 57.6064 6.87324C73.1303 5.20937 87.3336 14.9897 85.6056 34.0228C85.0577 40.056 85.6056 46.1974 85.4792 52.2577C85.3431 57.8274 82.9817 63.1322 78.8865 67.0679C74.7912 71.0036 69.2775 73.2672 63.4928 73.3875C56.7213 73.5498 49.9358 73.3875 43.1502 73.3875ZM54.5016 44.7365C54.4314 45.8592 54.3331 46.9685 54.2909 48.0912C54.2066 50.3638 55.0355 52.2712 57.5643 52.4336C60.5145 52.6229 61.5822 50.6885 61.5401 48.0912C61.5401 46.9685 61.4136 45.8592 61.3434 44.7365C62.0177 43.8301 62.8607 44.1954 63.7738 44.3442C66.8365 44.8582 69.7586 44.6012 69.7727 40.7865C69.7867 36.9718 66.8927 36.7282 63.816 37.1611C62.9028 37.3099 62.0458 37.6752 61.3434 36.7959C61.4136 35.6731 61.4839 34.5504 61.526 33.4276C61.6384 31.1414 60.7955 29.234 58.2527 29.0582C55.2743 28.8553 54.2628 30.8438 54.2909 33.4276C54.2909 34.5504 54.4314 35.6731 54.5016 36.7959C53.7992 37.6752 52.9563 37.2963 52.0431 37.1611C48.9945 36.6741 46.0864 36.9717 46.1004 40.7594C46.1145 44.5471 48.9805 44.8176 52.0431 44.3712C52.9422 44.2359 53.7992 43.8707 54.5016 44.7365ZM32.9508 49.8363C36.0977 48.5918 36.8704 46.725 34.5664 44.6418C31.7567 42.0851 30.5063 39.9207 34.2433 37.107C35.7886 35.9436 36.4911 34.1986 34.5383 32.5347C32.8525 31.1008 31.3493 31.9666 30.3237 33.1435C27.8933 35.849 25.7016 36.5389 23.0043 33.4005C22.0208 32.2507 20.4474 31.1685 18.7896 32.6294C18.4611 32.8741 18.193 33.1858 18.0047 33.5423C17.8163 33.8987 17.7123 34.2909 17.7003 34.6907C17.6882 35.0904 17.7683 35.4877 17.9348 35.8541C18.1013 36.2204 18.35 36.5467 18.6632 36.8094C21.7961 39.5149 21.9647 41.801 18.6632 44.4388C18.3207 44.6626 18.0339 44.9566 17.8231 45.2996C17.6123 45.6425 17.4828 46.0262 17.4439 46.4229C17.4049 46.8197 17.4576 47.2198 17.598 47.5948C17.7383 47.9697 17.9629 48.3101 18.2558 48.5917C18.5104 48.9022 18.8375 49.1505 19.2104 49.3165C19.5834 49.4824 19.9917 49.5613 20.4023 49.5469C20.8129 49.5324 21.2141 49.4248 21.5735 49.233C21.9328 49.0412 22.2401 48.7706 22.4704 48.443C25.4909 44.777 28.0899 45.4534 30.8997 48.6459C31.5076 49.1528 32.2014 49.5555 32.9508 49.8363Z" fill="#2B61B5"/>
</svg>
