<svg width="83" height="83" viewBox="0 0 83 83" fill="none" xmlns="http://www.w3.org/2000/svg">
<path d="M41.3098 82.4291C35.0042 82.4291 28.6851 82.5784 22.3253 82.4291C9.38877 82.0899 0.62881 73.5812 0.303362 60.7165C-0.0220858 47.8517 0.00503481 34.9326 0.303362 22.1357C0.601689 9.63736 9.33452 1.02012 21.8914 0.748715C34.733 0.477307 47.656 0.463736 60.4434 0.748715C72.9325 1.04726 81.5162 9.73232 81.8009 22.3528C82.0857 35.204 82.1128 48.1366 81.8009 60.9335C81.4755 73.4455 72.7562 81.9135 60.2129 82.3477C53.948 82.5784 47.6289 82.4291 41.3098 82.4291ZM40.7673 37.3075C46.8559 37.3075 52.9717 37.3075 59.0196 37.3075C61.257 37.3075 64.0234 37.5245 63.8742 34.2134C63.7386 31.4993 61.1621 31.5807 59.1959 31.4993C51.7512 31.4993 44.2795 31.4993 36.8755 31.4993C34.7194 31.4993 31.682 32.5849 30.57 30.5901C29.214 28.161 32.5905 27.1025 33.8245 25.4062C35.0584 23.7099 36.4281 22.5021 34.6381 20.7651C32.8482 19.0281 31.343 19.883 29.9056 21.3215C26.5562 24.6598 23.2203 28.0252 19.8438 31.3364C18.6369 32.5171 17.7148 33.9013 18.4877 35.5162C19.2607 37.131 20.8879 37.3346 22.5558 37.3346C28.5902 37.2668 34.6788 37.2803 40.7673 37.2803V37.3075ZM41.4454 45.8161C35.3568 45.8161 29.2411 45.8161 23.1932 45.8161C20.9422 45.8161 18.1894 45.6261 18.3657 48.9373C18.5149 51.6514 21.0777 51.5429 23.0576 51.57C30.5022 51.57 37.9739 51.57 45.3779 51.57C47.534 51.57 50.5715 50.4708 51.6699 52.4792C53.0259 54.9219 49.6222 55.9668 48.4018 57.6631C47.1814 59.3594 45.8118 60.5807 47.6018 62.3178C49.3918 64.0548 50.8969 63.1727 52.3343 61.7342C55.5346 58.5588 58.7213 55.3697 61.9215 52.2349C63.2775 50.8779 64.6336 49.5208 63.7657 47.5531C62.8978 45.5854 60.8502 45.7618 59.0196 45.7618L41.4454 45.8161Z" fill="#2B61B5"/>
</svg>
