<svg width="91" height="83" viewBox="0 0 91 83" fill="none" xmlns="http://www.w3.org/2000/svg">
<path fill-rule="evenodd" clip-rule="evenodd" d="M89.3995 66.3397C90.1003 66.3213 90.631 66.9724 90.4407 67.6494C89.4972 71.0081 87.9991 73.8713 85.5961 76.2819C82.0782 79.8099 77.6172 81.3756 72.1062 82.1191C66.7512 82.841 59.9089 82.841 51.27 82.841H41.3384C32.6996 82.841 25.8572 82.841 20.5021 82.1191C14.991 81.3756 10.5303 79.8099 7.01242 76.2819C3.49462 72.7535 1.93344 68.2793 1.19252 62.7518C0.472518 57.3809 0.472564 50.5182 0.472658 41.8536V41.3218C0.472564 32.6573 0.472518 25.7945 1.19252 20.4235C1.93344 14.896 3.49462 10.422 7.01242 6.89369C10.5303 3.36543 14.991 1.7996 20.5021 1.05648C25.8572 0.334334 32.6996 0.33438 41.3384 0.334475H51.27C59.9089 0.33438 66.7512 0.334334 72.1062 1.05648C77.6172 1.7996 82.0782 3.36543 85.5961 6.89369C87.9991 9.3042 89.4968 12.167 90.4407 15.5259C90.631 16.2028 90.1003 16.854 89.3995 16.8358L77.5354 16.8358C64.2015 16.8358 52.4484 27.4009 52.4484 41.5877C52.4484 55.7746 64.2015 66.3397 77.5354 66.3397H89.3995ZM18.1002 19.1931C16.1531 19.1931 14.5747 20.7762 14.5747 22.7291C14.5747 24.6819 16.1531 26.2651 18.1002 26.2651H36.9028C38.8499 26.2651 40.4283 24.6819 40.4283 22.7291C40.4283 20.7762 38.8499 19.1931 36.9028 19.1931H18.1002Z" fill="#2B61B5"/>
</svg>
