<svg width="71" height="71" viewBox="0 0 71 71" fill="none" xmlns="http://www.w3.org/2000/svg">
<path d="M53.1204 70.4561C45.7776 70.5749 39.4713 67.4751 33.6834 63.576C20.7254 54.9354 10.1429 44.1347 3.62073 29.8561C-1.00096 19.7358 0.262487 10.4687 6.63351 4.39871C12.4214 -1.12047 18.7277 -0.52644 23.425 6.00802C25.5199 8.92422 27.5606 11.8728 29.6447 14.7998C32.3767 18.6449 32.7548 22.544 29.2237 25.9786C26.4593 28.668 26.9236 30.7309 29.4504 33.1287C31.5345 35.1052 33.3594 37.3302 35.3571 39.3932C38.8126 43.0006 42.2681 46.5109 47.0194 40.9161C47.8573 40.2503 48.887 39.8716 49.9565 39.836C55.4852 39.0691 70.2358 50.2695 70.6353 55.4539C71.2076 63.4789 62.9793 70.5533 53.1204 70.4561Z" fill="#2B61B5"/>
</svg>
