<svg width="35" height="31" viewBox="0 0 35 31" fill="none" xmlns="http://www.w3.org/2000/svg">
<path d="M27.4983 8.96554V7.65632C27.4983 5.82324 27.4983 4.90669 27.1389 4.20655C26.8228 3.59068 26.3183 3.08997 25.698 2.77618C24.9927 2.41943 24.0693 2.41943 22.2226 2.41943H8.04423C6.19756 2.41943 5.27424 2.41943 4.56891 2.77618C3.94848 3.08997 3.44406 3.59068 3.12794 4.20655C2.76855 4.90669 2.76855 5.82324 2.76855 7.65632V8.96554M2.76855 8.96554V23.367C2.76855 25.2 2.76855 26.1167 3.12794 26.8168C3.44406 27.4326 3.94848 27.9334 4.56891 28.2471C5.27424 28.6039 6.19756 28.6039 8.04423 28.6039H27.1686C29.0152 28.6039 29.9386 28.6039 30.6439 28.2471C31.2643 27.9334 31.7688 27.4326 32.0848 26.8168C32.4442 26.1167 32.4442 25.2 32.4442 23.367V14.2024C32.4442 12.3693 32.4442 11.4528 32.0848 10.7527C31.7688 10.1368 31.2643 9.63607 30.6439 9.32228C29.9386 8.96554 29.0152 8.96554 27.1686 8.96554H2.76855ZM32.4442 15.5116H29.1469C27.3258 15.5116 25.8496 16.977 25.8496 18.7847C25.8496 20.5924 27.3258 22.0577 29.1469 22.0577H32.4442" stroke="#0B63BC" stroke-width="4.36407" stroke-linecap="round" stroke-linejoin="round"/>
</svg>
