<svg width="74" height="74" viewBox="0 0 74 74" fill="none" xmlns="http://www.w3.org/2000/svg">
<path d="M37.7282 0.766462C44.3696 0.766462 51.011 0.633842 57.6403 0.766462C66.6967 0.983477 73.3382 7.75915 73.5555 17.0305C73.7246 24.6501 73.6521 32.2818 73.5555 39.9376C73.4589 50.499 66.9142 57.118 56.2517 57.4556C52.8344 57.5641 49.4051 57.4556 45.9878 57.4556C43.8384 57.4556 41.3508 57.0095 40.4693 59.8668C39.7448 62.2781 39.5154 64.9184 41.5924 66.5702C42.4424 67.1053 43.0899 67.9074 43.4332 68.8503C43.7764 69.7933 43.7957 70.8234 43.4881 71.7785C42.6549 74.5515 40.1071 73.2373 38.3441 73.2976C33.3208 73.4784 28.2854 73.2976 23.2621 73.3941C20.8471 73.3941 19.3135 72.5622 19.1686 70.1027C18.9754 66.956 21.4025 67.39 23.3587 67.3417C25.3148 67.2935 27.3918 67.2332 29.3963 67.3417C33.0188 67.5467 34.4196 65.6659 34.4075 62.2419C34.3955 58.8179 32.6446 57.2506 29.1307 57.4194C25.3149 57.564 21.487 57.5761 17.6713 57.4194C7.39525 56.9612 0.947153 50.294 0.850551 40.0702C0.850551 32.4385 0.753949 24.8068 0.850551 17.1631C0.995454 7.518 7.61256 0.947319 17.1761 0.77853C24.047 0.670023 30.8936 0.754405 37.7282 0.766462Z" fill="#2B61B5"/>
</svg>
