<svg width="38" height="31" viewBox="0 0 38 31" fill="none" xmlns="http://www.w3.org/2000/svg">
<path d="M27.9799 17.0769C29.0083 17.0769 29.8421 17.9107 29.8421 18.9393C29.8421 19.8943 29.1232 20.6815 28.1971 20.7891L27.9799 20.8016H6.40692L12.5373 26.9341C13.2086 27.6054 13.2602 28.6618 12.6922 29.3924L12.5373 29.5678C11.866 30.2392 10.8098 30.2908 10.0793 29.7227L9.90383 29.5678L0.593089 20.2561C-0.528995 19.1339 0.182372 17.2498 1.69823 17.0881L1.90983 17.0769H27.9799ZM27.2553 0.706458L27.4308 0.861384L36.7415 10.1731C37.8636 11.2953 37.1522 13.1794 35.6364 13.3411L35.4248 13.3523H9.35469C8.32625 13.3523 7.49254 12.5185 7.49254 11.4899C7.49254 10.5349 8.2114 9.7477 9.13752 9.64013L9.35469 9.62759H30.9277L24.7973 3.49512C24.126 2.82378 24.0744 1.76741 24.6424 1.03683L24.7973 0.861384C25.4686 0.190042 26.5248 0.138399 27.2553 0.706458Z" fill="#0B63BC"/>
</svg>
