<svg width="68" height="69" viewBox="0 0 68 69" fill="none" xmlns="http://www.w3.org/2000/svg">
<path d="M67.6508 14.9688C62.4798 29.679 58.9951 46.953 50.4657 62.3357C46.166 70.0831 39.5616 69.831 34.3344 62.644C30.9902 58.0488 29.2197 52.683 27.7303 47.3173C27.365 45.6306 26.5155 44.0863 25.2856 42.8724C24.0556 41.6586 22.4981 40.8275 20.8028 40.4805C16.0861 39.1634 11.5365 37.3113 7.24303 34.9607C-2.14344 29.623 -2.12941 22.3519 7.13059 17.0002C10.3859 15.1786 13.8179 13.6906 17.3742 12.5591C29.0932 8.62235 40.7701 4.50347 52.6718 1.21118C61.9459 -1.35261 68.3253 4.0972 67.6508 14.9688ZM50.7889 19.676C50.2549 18.8635 49.9317 17.9108 49.2713 17.4765C48.681 17.0878 47.9654 16.9354 47.2673 17.0497C46.5693 17.164 45.9402 17.5365 45.5055 18.0929C41.3884 22.1558 37.2713 26.2466 33.2244 30.3795C32.1003 31.5423 30.9059 32.9713 32.4937 34.5824C34.0815 36.1935 35.8802 35.3529 37.2994 33.952C41.0933 30.2114 44.8592 26.4568 48.5407 22.6461C49.3639 21.7104 50.1199 20.7179 50.803 19.676H50.7889Z" fill="#2B61B5"/>
</svg>
